<?xml version="1.0" encoding="utf-8"?>
<!-- Generator: Adobe Illustrator 19.1.1, SVG Export Plug-In . SVG Version: 6.00 Build 0)  -->
<svg version="1.1" xmlns="http://www.w3.org/2000/svg" xmlns:xlink="http://www.w3.org/1999/xlink" x="0px" y="0px"
	 viewBox="0 0 1500 1000" enable-background="new 0 0 1500 1000" xml:space="preserve">
<g id="background">
	<g>
		<rect x="0" fill="#FFFFFF" width="1500" height="1000"/>
		<g>
			<g>
				<path fill="#841852" d="M1105,685.793c103.239,0,206.478-1.059,309.717-1.403v44.732c0,25.076-4.69,49.054-13.223,71.118
					c-79.76-15.114-152.792-33.462-234.494-49.447c-50.522-10.104-98.442-19.165-146.763-27.938v-33.75
					C1048.491,685.147,1076.746,685.793,1105,685.793z"/>
				<path fill="#981852" d="M1111.391,685.79l138.061,53.071c1.797,0.691,3.204-1.634,1.759-2.906l-23.541-20.721
					c-1.482-1.305,0.034-3.672,1.839-2.873l99.162,43.932c1.807,0.8,3.322-1.571,1.837-2.875l-44.52-39.063
					c-1.455-1.276-0.028-3.612,1.771-2.902l71.309,28.149c1.698,0.67,3.137-1.41,1.913-2.763L1313.5,684.39L1111.391,685.79z"/>
				<path fill="#FF7A9A" d="M1414.717,663.902c-2.54-0.437-5.106-0.819-7.717-1.109c-74.037-8.126-140.739-25.22-212.615-42.448
					c72.796-7.412,145.519-18.399,220.333-32.333V663.902z"/>
				
					<linearGradient id="SVGID_1_" gradientUnits="userSpaceOnUse" x1="-2989.8149" y1="620.3452" x2="-2989.8149" y2="73.6381" gradientTransform="matrix(-1 0 0 1 -1772.3378 0)">
					<stop  offset="0" style="stop-color:#FFC6BD"/>
					<stop  offset="1" style="stop-color:#FF9CC6"/>
				</linearGradient>
				<path fill="url(#SVGID_1_)" d="M1020.237,592.232V270.878c0-108.933,88.307-197.24,197.24-197.24h0
					c108.933,0,197.24,88.307,197.24,197.24v317.134c-74.814,13.934-147.537,24.921-220.333,32.333
					c-7.73-1.853-15.519-3.707-23.385-5.552C1120.293,602.974,1070.169,596.107,1020.237,592.232z"/>
				<g>
					<circle opacity="0.2" fill="#FFFFE7" cx="1212.748" cy="411.682" r="168.853"/>
					<circle opacity="0.2" fill="#FFFFE7" cx="1212.748" cy="411.682" r="143.977"/>
					<circle opacity="0.2" fill="#FFFFE7" cx="1212.748" cy="411.682" r="113.362"/>
					<circle fill="#FFFFE7" cx="1212.748" cy="411.682" r="85.188"/>
				</g>
				<path fill="#290011" d="M1116.925,614.496l7.905-41.821c0.34-1.8,2.928-1.771,3.227,0.037l6.917,41.821
					c0.165,0.998-0.605,1.906-1.617,1.906h-14.822C1117.508,616.44,1116.734,615.505,1116.925,614.496z"/>
				<path fill="#290011" d="M1065.221,621.344l7.905-41.821c0.34-1.8,2.928-1.771,3.227,0.037l6.917,41.821
					c0.165,0.998-0.605,1.906-1.617,1.906h-14.822C1065.804,623.288,1065.03,622.354,1065.221,621.344z"/>
				<path fill="#C63984" d="M1407,662.793c2.612,0.29,5.178,0.672,7.717,1.109v20.488c-103.239,0.344-206.478,1.403-309.717,1.403
					c-28.254,0-56.509-0.646-84.763,3.312v-96.872c49.932,3.874,100.056,10.742,150.763,22.56
					C1252,633.793,1325,653.793,1407,662.793z"/>
				<path fill="#290011" d="M1167,750.793c81.702,15.985,154.734,34.333,234.494,49.447
					c-28.536,73.786-100.16,126.122-184.017,126.122h0c-108.933,0-197.24-88.307-197.24-197.24v-6.267
					C1068.558,731.627,1116.478,740.688,1167,750.793z"/>
				<g>
					<g>
						<path fill="#FFC6BD" d="M1231.956,417.192c16.814-2.208,32.557-7.329,46.465-14.965c0.021,0.109,0.052,0.218,0.066,0.328
							c1.038,8.261-17.351,19.912-45.465,23.604c-0.245,0.032-0.489,0.063-0.736,0.094c-13.348,1.676-26.112,1.185-35.94-1.383
							c-8.682-2.269-14.173-6.065-14.686-10.156c-0.014-0.111-0.01-0.225-0.017-0.337c15.606,4.023,32.405,5.066,49.518,2.917
							C1231.424,417.261,1231.693,417.227,1231.956,417.192z"/>
						<path fill="#C63984" d="M1248.457,407.932c6.764-4.424,14.84-10.527,22.737-18.505c7.78-7.859,15.991-18.264,22.188-31.313
							c14.285-4.953,23.547-10.015,29.361-14.011C1310.808,374.591,1283.972,398.334,1248.457,407.932z"/>
						<path fill="#C63984" d="M1328.727,294.481c1.714,13.647,0.744,26.837-2.546,39.149c-1.993,2.152-9.773,9.428-29.589,17.011
							c5.61-14.659,8.521-32.238,5.93-52.869c-3.905-31.095-16.317-59.266-34.95-79.325c-7.543-8.12-15.746-14.523-24.336-19.11
							C1287.462,209.821,1322.74,246.799,1328.727,294.481z"/>
						<path fill="#C63984" d="M1165.585,209.077c-7.198,6.57-13.569,14.808-18.874,24.547
							c-13.094,24.042-18.156,54.409-14.251,85.503c2.319,18.466,7.13,33.38,13.299,45.446
							c-19.035-4.238-28.688-10.285-31.062-11.932c-4.233-9.361-7.096-19.51-8.441-30.223
							C1100.269,274.73,1125.316,230.167,1165.585,209.077z"/>
						<path fill="#C63984" d="M1149.587,371.425c10.844,17.819,24.707,28.432,36.786,34.705c4.4,2.285,8.728,4.102,12.86,5.552
							c-18.8-2.178-36.346-8.586-51.156-18.898c-11.746-8.178-21.341-18.585-28.442-30.625
							C1125.962,365.169,1135.743,368.821,1149.587,371.425z"/>
						<path fill="#FF7A9A" d="M1151.865,236.43c9.259-17,21.901-29.082,36.496-35.169c-4.765,6.682-8.575,16.582-11.172,29.315
							c-4.645,22.779-5.073,52.286-1.206,83.085c2.917,23.225,7.45,41.244,12.683,55.24c-14.044-0.026-25.857-1.189-35.641-2.893
							c-7.487-13.216-12.419-29.11-14.743-47.612C1134.531,288.511,1139.355,259.402,1151.865,236.43z"/>
						<path fill="#FF7A9A" d="M1296.701,298.502c2.485,19.792,0.004,38.094-7.381,54.74c-8.024,2.689-17.65,5.346-29.153,7.758
							c1.778-15.047,1.821-33.978-1.166-57.764c-3.868-30.798-11.578-59.283-21.711-80.207
							c-5.657-11.682-11.79-20.327-18.052-25.625C1256.814,202.964,1289.93,244.588,1296.701,298.502z"/>
						<path fill="#FF7A9A" d="M1259.309,367.189c10.069-2.038,18.795-4.268,26.349-6.566c-4.786,8.725-10.996,16.96-18.634,24.676
							c-6.607,6.674-13.405,12.005-19.36,16.08C1252.292,393.828,1256.784,382.885,1259.309,367.189z"/>
						<path fill="#FF7A9A" d="M1157.188,372.679c9.582,1.372,20.806,2.211,33.818,2.106c7.921,18.772,17.051,29.29,24.536,35.159
							c-7.478-1.392-16.969-4.056-26.694-9.143C1175.905,394.032,1165.343,384.628,1157.188,372.679z"/>
						<path fill="#FFC6BD" d="M1253.177,303.968c3.067,24.426,2.868,43.455,0.921,58.248c-7.957,1.521-16.729,2.922-26.415,4.14
							c-11.964,1.502-22.841,2.266-32.707,2.481c-5.314-13.59-10.134-31.741-13.169-55.907
							c-8.345-66.465,4.457-113.45,21.661-115.709c0.019-0.003,0.037-0.005,0.056-0.007
							C1220.757,195.05,1244.821,237.43,1253.177,303.968z"/>
						<path fill="#FFC6BD" d="M1231.161,371.825c7.917-1.039,15.228-2.2,21.988-3.447c-5.609,31.45-19.436,41.041-22.758,42.921
							c-2.447-0.638-10.403-3.408-19.285-13.916c-4.254-5.033-9.083-12.318-13.698-22.724c9.446-0.292,19.759-1.069,31.008-2.481
							C1229.338,372.062,1230.254,371.944,1231.161,371.825z"/>
						<path fill="#290011" d="M1109.453,355.299c0.077,0.274,0.201,0.533,0.357,0.777c7.727,16.626,19.593,30.856,34.912,41.523
							c9.44,6.573,19.927,11.635,31.108,15.122c-0.103,0.908-0.107,1.817,0.007,2.724c0.639,5.087,4.632,9.385,11.443,12.472
							l25.421,84.91c0.01,0.173,0.016,0.345,0.038,0.518c0.037,0.293,0.095,0.58,0.165,0.863c0.006,0.321,0.024,0.643,0.065,0.966
							c1.181,9.398,6.851,30.89,33.936,27.489c0.102-0.013,0.204-0.026,0.306-0.039c12.529-1.645,20.711-7.137,24.321-16.326
							c2.881-7.335,1.92-14.984,1.458-18.661c-0.04-0.316-0.099-0.626-0.171-0.932c-0.002-0.18-0.018-0.361-0.033-0.543
							l3.676-89.508c5.586-4.553,8.496-9.664,7.847-14.831c-0.114-0.907-0.343-1.786-0.666-2.64
							c9.972-6.143,18.881-13.642,26.403-22.345c10.403-12.036,17.735-25.961,21.766-40.967c0.124-0.277,0.19-0.567,0.223-0.859
							c3.405-13.121,4.3-27.052,2.515-41.264c-8.105-64.546-67.212-110.464-131.758-102.358c-0.22,0.028-0.448,0.057-0.668,0.086
							c-64.198,8.428-109.768,67.346-101.69,131.672C1101.866,334.547,1104.924,345.345,1109.453,355.299z M1119.634,362.159
							c6.329,3.01,16.11,6.662,29.953,9.266c10.844,17.819,24.707,28.432,36.786,34.705c4.4,2.285,8.728,4.102,12.86,5.552
							c-18.8-2.178-36.346-8.586-51.156-18.898C1136.33,384.606,1126.734,374.199,1119.634,362.159z M1181.643,414.377
							c15.606,4.023,32.405,5.066,49.518,2.917c0.264-0.033,0.532-0.067,0.795-0.102c16.814-2.208,32.557-7.329,46.465-14.965
							c0.021,0.109,0.052,0.218,0.066,0.328c1.038,8.261-17.351,19.912-45.465,23.604c-0.245,0.032-0.489,0.063-0.736,0.094
							c-13.348,1.676-26.112,1.185-35.94-1.383c-8.682-2.269-14.173-6.065-14.686-10.156
							C1181.646,414.604,1181.65,414.489,1181.643,414.377z M1232.144,497.535l-12.052-64.478c4.208-0.105,8.541-0.431,12.925-0.982
							c0.264-0.033,0.533-0.068,0.796-0.102c4.227-0.555,8.276-1.286,12.124-2.159l4.265,65.469c-2.482-0.022-5.031,0.1-7.576,0.361
							c-0.005,0-0.01,0.001-0.014,0.001c-0.53,0.055-1.06,0.113-1.59,0.18c-0.692,0.088-1.373,0.189-2.048,0.297
							C1236.617,496.486,1234.329,496.96,1232.144,497.535z M1106.257,322.417c-5.988-47.687,19.059-92.25,59.328-113.34
							c-7.198,6.57-13.569,14.808-18.874,24.547c-13.094,24.042-18.156,54.409-14.251,85.503c2.319,18.466,7.13,33.38,13.299,45.446
							c-19.035-4.238-28.688-10.285-31.062-11.932C1110.465,343.279,1107.602,333.13,1106.257,322.417z M1188.848,400.802
							c-12.942-6.77-23.505-16.174-31.66-28.123c9.582,1.372,20.806,2.211,33.818,2.106c7.921,18.772,17.051,29.29,24.536,35.159
							C1208.063,408.553,1198.572,405.889,1188.848,400.802z M1247.664,401.378c4.628-7.55,9.12-18.493,11.645-34.189
							c10.069-2.038,18.795-4.268,26.349-6.566c-4.786,8.725-10.996,16.96-18.634,24.676
							C1260.417,391.973,1253.62,397.304,1247.664,401.378z M1197.407,374.66c9.446-0.292,19.759-1.069,31.008-2.481
							c0.923-0.116,1.839-0.234,2.746-0.353c7.917-1.039,15.228-2.2,21.988-3.447c-5.609,31.45-19.436,41.041-22.758,42.921
							c-2.447-0.638-10.403-3.408-19.285-13.916C1206.852,392.351,1202.022,385.065,1197.407,374.66z M1153.026,366.008
							c-7.487-13.216-12.419-29.11-14.743-47.612c-3.753-29.885,1.071-58.993,13.582-81.965c9.259-17,21.901-29.082,36.496-35.169
							c-4.765,6.682-8.575,16.582-11.172,29.315c-4.645,22.779-5.073,52.286-1.206,83.085c2.917,23.225,7.45,41.244,12.683,55.24
							C1174.623,368.875,1162.81,367.712,1153.026,366.008z M1203.524,197.213c17.233-2.163,41.298,40.216,49.653,106.754
							c3.067,24.426,2.868,43.455,0.921,58.248c-7.957,1.521-16.729,2.922-26.415,4.14c-11.964,1.502-22.841,2.266-32.707,2.481
							c-5.314-13.59-10.134-31.741-13.169-55.907c-8.345-66.465,4.457-113.45,21.661-115.709
							C1203.487,197.218,1203.505,197.216,1203.524,197.213z M1219.237,197.404c37.577,5.56,70.693,47.185,77.463,101.098
							c2.485,19.792,0.004,38.094-7.381,54.74c-8.024,2.689-17.65,5.346-29.153,7.758c1.778-15.047,1.821-33.978-1.166-57.764
							c-3.868-30.798-11.578-59.283-21.711-80.207C1231.632,211.347,1225.5,202.702,1219.237,197.404z M1243.238,199.336
							c44.224,10.485,79.502,47.462,85.49,95.144c1.714,13.647,0.744,26.837-2.546,39.149c-1.993,2.152-9.773,9.428-29.589,17.011
							c5.61-14.659,8.521-32.238,5.93-52.869c-3.905-31.095-16.317-59.266-34.95-79.325
							C1260.031,210.326,1251.828,203.922,1243.238,199.336z M1322.744,344.102c-11.935,30.489-38.772,54.232-74.286,63.83
							c6.764-4.424,14.84-10.527,22.737-18.505c7.78-7.859,15.991-18.264,22.188-31.313
							C1307.668,353.161,1316.929,348.099,1322.744,344.102z M1270.419,420.77l-3.202,77.959c-2.924-1.59-6.789-2.609-11.112-3.1
							l-4.383-67.279C1258.973,426.307,1265.305,423.721,1270.419,420.77z M1194.132,430.343c0.245,0.068,0.48,0.14,0.73,0.205
							c5.673,1.482,12.225,2.317,19.258,2.502l12.39,66.285c-1.915,0.729-3.708,1.531-5.306,2.416
							c-1.862,1.031-3.436,2.14-4.705,3.304L1194.132,430.343z"/>
					</g>
					<path opacity="0.28" fill="#3D3356" d="M1159.031,209.959c-21.764,21.341-33.569,51.404-29.439,82.858
						c7.191,54.776,59.971,93.016,117.887,85.413c40.995-5.382,73.569-32.294,86.556-66.984
						c-3.54,52.199-45.734,96.856-102.482,104.307c-64.21,8.43-122.726-33.966-130.699-94.695
						C1094.851,275.13,1119.217,232.053,1159.031,209.959z"/>
					
						<ellipse transform="matrix(-0.7556 -0.655 0.655 -0.7556 2073.4753 1275.025)" opacity="0.46" fill="#FFFFFF" cx="1274.581" cy="250.726" rx="42.132" ry="26.587"/>
					
						<ellipse transform="matrix(-0.9704 -0.2414 0.2414 -0.9704 2489.2649 916.539)" opacity="0.46" fill="#FFFFFF" cx="1300.775" cy="305.789" rx="15.573" ry="15.124"/>
				</g>
				<path fill="#290011" d="M1390.414,694.743l-21.447-113.463c-0.923-4.884-7.945-4.804-8.756,0.1l-18.766,113.463
					c-0.448,2.709,1.641,5.172,4.387,5.172h40.213C1388.831,700.016,1390.931,697.482,1390.414,694.743z"/>
				<path fill="#290011" d="M1332.824,697.38l-10.724-56.731c-0.462-2.442-3.973-2.402-4.378,0.05l-9.383,56.731
					c-0.224,1.354,0.821,2.586,2.193,2.586h20.107C1332.033,700.016,1333.083,698.749,1332.824,697.38z"/>
				<path fill="#290011" d="M1083.351,612.562l15.773-83.443c0.679-3.592,5.843-3.533,6.439,0.074l13.801,83.443
					c0.329,1.992-1.207,3.804-3.226,3.804h-29.574C1084.514,616.44,1082.97,614.576,1083.351,612.562z"/>
				<path fill="#290011" d="M1052.493,731.538l20.371-84.999c0.479-2.001,3.338-1.966,3.768,0.046l15.414,71.998l13.578-22.779
					c0.824-1.383,2.88-1.21,3.461,0.292l21.644,55.915l-86.835-13.239L1052.493,731.538z"/>
				<g>
					<path fill="#FFFFFF" d="M1334.232,168.053c4.92-0.748,9.514,0.714,12.907,4.057c2.864-3.65,7.417-5.689,12.155-5.196
						c2.395,0.249,2.42,4.03,0,3.779c-4.387-0.456-8.264,1.566-10.302,5.498c-0.704,1.359-2.496,1.081-3.263,0
						c-2.377-3.354-6.414-5.115-10.493-4.494C1332.857,172.058,1331.832,168.418,1334.232,168.053z"/>
					<path fill="#FFFFFF" d="M1305.996,186.739c4.92-0.748,9.514,0.714,12.907,4.057c2.863-3.65,7.417-5.689,12.155-5.196
						c2.395,0.249,2.42,4.03,0,3.779c-4.387-0.456-8.264,1.566-10.302,5.498c-0.704,1.359-2.497,1.081-3.263,0
						c-2.377-3.354-6.414-5.115-10.493-4.494C1304.621,190.745,1303.596,187.105,1305.996,186.739z"/>
				</g>
			</g>
			<g>
				
					<linearGradient id="SVGID_2_" gradientUnits="userSpaceOnUse" x1="-2522.3379" y1="926.3619" x2="-2522.3379" y2="73.6381" gradientTransform="matrix(-1 0 0 1 -1772.3378 0)">
					<stop  offset="0" style="stop-color:#FFFBB1"/>
					<stop  offset="1" style="stop-color:#6DE5C6"/>
				</linearGradient>
				<path fill="url(#SVGID_2_)" d="M750,926.362L750,926.362c108.933,0,197.24-88.307,197.24-197.24V270.878
					c0-108.933-88.307-197.24-197.24-197.24h0c-108.933,0-197.24,88.307-197.24,197.24v458.244
					C552.76,838.055,641.067,926.362,750,926.362z"/>
				<g>
					<circle opacity="0.2" fill="#FFFFE7" cx="751.142" cy="266.506" r="168.853"/>
					<circle opacity="0.2" fill="#FFFFE7" cx="751.142" cy="266.506" r="143.977"/>
					<circle opacity="0.2" fill="#FFFFE7" cx="751.142" cy="266.506" r="113.362"/>
					<circle fill="#FFFFE7" cx="751.142" cy="266.506" r="85.188"/>
				</g>
				<path fill="#00746B" d="M796.786,707.811c-11.236,13.728-11.111,35.642-25.286,46.982c-5,5-19.5,3-25.5,6c-35,24-72,40-113,46
					c-21.26,3.127-42.13,3.125-62.853,3.418c-11.17-24.735-17.388-52.186-17.388-81.089v-58.356
					C635.656,669.876,718.342,680.711,796.786,707.811z"/>
				<path opacity="0.18" fill="#3D3356" d="M599.966,671.563c66.961,3.021,133.282,14.298,196.82,36.248
					c-7.006,8.559-9.595,20.301-13.988,30.678c-30.599-0.555-61.199-2.138-91.798-6.696
					C655.614,726.855,616.171,705.662,599.966,671.563z"/>
				<path fill="#00837E" d="M596,552.793c36-8,73-7,111-1c21,4,41,13,62,21c34,13,64,28,96,48c0.308,0.206,0.618,0.4,0.927,0.596
					c-13.444,11.057-25.562,23.185-34.927,38.404c-10.55,16.352-21.671,32.693-34.214,48.018
					c-78.444-27.1-161.13-37.935-244.026-37.045V564.444C566.698,559.404,581.259,555.741,596,552.793z"/>
				<path opacity="0.16" fill="#3D3356" d="M627.548,601.885c0.377-2.392,0.928-4.725,1.632-6.999
					c0.004-0.015,0.008-0.029,0.013-0.043c0.163-0.525,0.336-1.047,0.515-1.566c0.06-0.172,0.125-0.343,0.186-0.515
					c0.123-0.345,0.247-0.689,0.377-1.031c0.078-0.204,0.161-0.405,0.241-0.608c0.122-0.308,0.244-0.616,0.372-0.922
					c0.089-0.213,0.182-0.424,0.274-0.635c0.127-0.292,0.254-0.584,0.386-0.874c0.098-0.216,0.199-0.43,0.3-0.645
					c0.133-0.283,0.268-0.566,0.406-0.847c0.106-0.216,0.214-0.43,0.323-0.645c0.14-0.277,0.283-0.552,0.428-0.827
					c0.113-0.214,0.227-0.427,0.343-0.64c0.149-0.273,0.3-0.544,0.454-0.815c0.119-0.21,0.238-0.419,0.359-0.628
					c0.159-0.272,0.321-0.543,0.484-0.813c0.122-0.203,0.244-0.405,0.369-0.607c0.171-0.275,0.346-0.549,0.522-0.822
					c0.124-0.193,0.247-0.386,0.373-0.578c0.188-0.285,0.38-0.567,0.573-0.849c0.12-0.176,0.239-0.354,0.361-0.529
					c0.221-0.317,0.448-0.63,0.675-0.943c0.1-0.138,0.197-0.277,0.298-0.414c0.33-0.448,0.667-0.893,1.01-1.335
					c0.051-0.066,0.105-0.131,0.157-0.197c0.293-0.375,0.589-0.747,0.891-1.117c0.126-0.154,0.255-0.305,0.382-0.458
					c0.233-0.28,0.465-0.559,0.702-0.836c0.148-0.172,0.299-0.342,0.448-0.513c0.223-0.254,0.445-0.509,0.672-0.761
					c0.16-0.178,0.323-0.354,0.485-0.53c0.222-0.242,0.444-0.483,0.67-0.723c0.169-0.179,0.339-0.357,0.51-0.534
					c0.224-0.233,0.449-0.466,0.677-0.697c0.176-0.178,0.353-0.356,0.531-0.533c0.229-0.228,0.459-0.454,0.691-0.68
					c0.181-0.176,0.362-0.351,0.545-0.525c0.234-0.223,0.469-0.444,0.706-0.664c0.185-0.173,0.371-0.345,0.558-0.516
					c0.242-0.221,0.487-0.441,0.732-0.659c0.185-0.165,0.369-0.331,0.556-0.495c0.256-0.224,0.514-0.446,0.773-0.668
					c0.181-0.155,0.361-0.311,0.543-0.465c0.278-0.234,0.559-0.465,0.84-0.696c0.167-0.138,0.333-0.276,0.502-0.413
					c0.332-0.269,0.668-0.534,1.005-0.799c0.122-0.096,0.241-0.193,0.363-0.288c0.46-0.359,0.925-0.714,1.393-1.065
					c0.101-0.075,0.203-0.149,0.304-0.224c0.37-0.275,0.74-0.548,1.114-0.818c0.171-0.123,0.344-0.244,0.516-0.367
					c0.307-0.218,0.613-0.436,0.923-0.652c0.196-0.136,0.395-0.271,0.592-0.406c0.289-0.198,0.578-0.395,0.869-0.59
					c0.211-0.141,0.423-0.28,0.635-0.42c0.281-0.185,0.563-0.37,0.847-0.553c0.218-0.14,0.437-0.279,0.656-0.418
					c0.283-0.18,0.567-0.358,0.852-0.535c0.221-0.137,0.442-0.273,0.664-0.409c0.285-0.174,0.571-0.347,0.858-0.519
					c0.225-0.135,0.45-0.269,0.676-0.402c0.289-0.17,0.58-0.339,0.871-0.507c0.225-0.13,0.449-0.259,0.675-0.387
					c0.297-0.168,0.594-0.334,0.893-0.5c0.222-0.124,0.445-0.248,0.668-0.37c0.311-0.17,0.624-0.337,0.936-0.504
					c0.212-0.113,0.423-0.227,0.635-0.339c0.338-0.178,0.678-0.353,1.018-0.527c0.19-0.098,0.38-0.197,0.571-0.294
					c0.413-0.21,0.829-0.415,1.244-0.62c0.119-0.058,0.236-0.119,0.355-0.177c0.534-0.261,1.071-0.518,1.609-0.771
					c0.149-0.07,0.299-0.138,0.448-0.207c0.39-0.181,0.781-0.363,1.173-0.54c0.205-0.093,0.411-0.183,0.617-0.275
					c0.337-0.15,0.674-0.3,1.013-0.447c0.227-0.099,0.455-0.195,0.682-0.292c0.319-0.136,0.638-0.272,0.958-0.406
					c0.143-0.06,0.287-0.118,0.43-0.177c9.451,0.813,18.965,2.005,28.543,3.518c21,4,41,13,62,21
					c13.363,5.109,26.104,10.535,38.595,16.445c1.128,2.444,2.098,4.954,2.842,7.547c0.003,0.012,0.007,0.024,0.01,0.037
					c0.655,2.287,1.156,4.63,1.482,7.028c5.225,38.433-14.591,58.993-33.755,78.876c-4.777,4.956-9.453,9.83-13.727,14.899
					c-36.007-10.298-72.769-17.395-109.915-21.701C637.581,657.236,622.052,636.731,627.548,601.885z"/>
				<path fill="#009593" d="M947.24,521.292v56.368c-18.186,2.582-35.503,9.33-51.24,21.133
					c-10.366,7.464-20.55,14.764-30.073,22.596c-0.309-0.196-0.619-0.39-0.927-0.596c-32-20-62-35-96-48
					c-2.122-0.808-4.232-1.628-6.336-2.451c19.813-9.677,40.715-17.175,61.336-23.549
					C864.476,534.072,905.621,525.706,947.24,521.292z"/>
				<path fill="#001600" d="M633,806.793c41-6,78-22,113-46c28-18.478,64.864-70.088,85-101c27.869-42.785,40-43,65-61
					c15.737-11.803,33.054-18.551,51.24-21.133v151.462c0,108.933-88.307,197.24-197.24,197.24h0
					c-80.029,0-148.925-47.663-179.852-116.151C590.87,809.918,611.74,809.919,633,806.793z"/>
				<path fill="#001600" d="M854.952,652.793l36.998-178.341c0.661-3.186,5.226-3.144,5.827,0.054L916,571.34l12.992-29.678
					c1.079-2.465,4.618-2.339,5.52,0.196l12.728,35.801l-46.144,59.133L854.952,652.793z"/>
				<path fill="#001600" d="M612.099,815.828l35.288-160.754c0.756-3.443,5.659-3.463,6.443-0.026L689,809.215L612.099,815.828z"/>
				<path fill="#001600" d="M591.588,559.327l12.66-66.978c0.545-2.883,4.69-2.836,5.169,0.059l11.078,66.978
					c0.264,1.599-0.969,3.053-2.59,3.053h-23.738C592.522,562.439,591.283,560.943,591.588,559.327z"/>
				<path fill="#001600" d="M625.584,560.883l6.33-33.489c0.273-1.442,2.345-1.418,2.584,0.03l5.539,33.489
					c0.132,0.799-0.484,1.527-1.295,1.527h-11.869C626.051,562.439,625.431,561.691,625.584,560.883z"/>
				<g>
					<path fill="#FFFFFF" d="M682.526,475.457c4.92-0.748,9.514,0.714,12.907,4.057c2.863-3.65,7.417-5.689,12.155-5.196
						c2.395,0.249,2.42,4.03,0,3.779c-4.387-0.456-8.264,1.566-10.302,5.498c-0.704,1.359-2.496,1.081-3.263,0
						c-2.377-3.354-6.414-5.115-10.493-4.494C681.152,479.463,680.127,475.823,682.526,475.457z"/>
					<path fill="#FFFFFF" d="M654.291,494.144c4.92-0.748,9.514,0.714,12.907,4.057c2.863-3.65,7.417-5.689,12.155-5.196
						c2.395,0.249,2.42,4.03,0,3.779c-4.387-0.456-8.264,1.566-10.302,5.498c-0.704,1.359-2.497,1.081-3.263,0
						c-2.377-3.354-6.414-5.115-10.493-4.494C652.916,498.149,651.891,494.509,654.291,494.144z"/>
				</g>
				<g>
					<g>
						<path fill="#00CDC8" d="M805.146,288.566c-7.819-18.128-19.504-31.698-31.389-39.652
							c17.441,3.572,35.709,10.673,51.181,20.189c18.639,11.463,32.169,25.609,39.527,41.013
							C855.04,303.434,836.966,294.084,805.146,288.566z"/>
						<path fill="#00CDC8" d="M769.533,497.447c3.5-25.675,12.225-43.668,21.41-62.601c12.033-24.802,24.431-50.392,23.928-94.283
							c36.805,4.106,52.181,10.503,56.24,12.498c-2.721,34.895-23.512,56.468-45.303,79.078
							c-18.052,18.729-36.66,38.039-43.563,65.47c-0.179-0.012-0.357-0.03-0.538-0.032L769.533,497.447z"/>
						<path fill="#00A793" d="M696.044,287.45c-31.925,4.865-50.213,13.837-59.777,20.299c7.679-15.269,21.52-29.147,40.426-40.226
							c15.668-9.181,34.079-15.887,51.589-19.088C716.223,256.142,704.246,269.475,696.044,287.45z"/>
						<path fill="#E4FFE1" d="M693.314,314.096c14.145-1.822,31.122-2.994,51.422-2.994c0.948,0,1.899,0.003,2.857,0.008
							l-0.217,20.346c-22.415-0.168-40.996,0.519-56.323,1.681c0.117-1.957,0.25-3.937,0.421-5.966
							C691.848,322.739,692.469,318.373,693.314,314.096z"/>
						<path fill="#E4FFE1" d="M629.053,334.877c0.004-0.004,0.009-0.007,0.013-0.011c0.244-0.243,13.922-13.317,58.454-19.966
							c-0.689,3.812-1.216,7.748-1.558,11.806c-0.198,2.348-0.347,4.631-0.475,6.884c-33.514,2.938-50.101,8.14-56.901,10.913
							C628.596,341.398,628.75,338.191,629.053,334.877z"/>
						<path fill="#00A793" d="M685.234,339.2c-1.435,43.859,10.414,69.703,21.914,94.752c8.78,19.125,17.119,37.299,20.071,63.043
							l-11.889-0.127c-0.032,0-0.066,0-0.098,0c-0.243,0-0.482,0.017-0.721,0.036c-6.313-27.582-24.51-47.288-42.163-66.403
							c-21.303-23.067-41.628-45.077-43.608-80.018C632.87,348.578,648.439,342.525,685.234,339.2z"/>
						<path fill="#E4FFE1" d="M753.125,311.172c21.564,0.333,39.447,1.892,54.196,4.102c0.758,4.307,1.289,8.697,1.568,13.148
							c0.127,2.025,0.218,4,0.293,5.953c-15.293-1.482-33.855-2.557-56.274-2.86L753.125,311.172z"/>
						<path fill="#E4FFE1" d="M753.184,305.64l0.171-16.063c18.739,0.316,34.585,1.83,47.862,3.987
							c2.011,5.091,3.657,10.411,4.916,15.902C791.52,307.395,774.031,305.96,753.184,305.64z"/>
						<path fill="#00A793" d="M786.496,268.092c4.737,5.809,8.794,12.352,12.119,19.426c-12.902-1.908-27.876-3.186-45.202-3.474
							l0.4-37.509C764.28,247.861,776.539,255.882,786.496,268.092z"/>
						<path fill="#00CDC8" d="M748.282,246.476l-0.4,37.511c-17.334-0.068-32.338,0.905-45.286,2.549
							c3.48-7.017,7.683-13.487,12.552-19.204C725.362,255.337,737.79,247.579,748.282,246.476z"/>
						<path fill="#E4FFE1" d="M814.41,328.075c-0.256-4.079-0.702-8.04-1.313-11.878c44.598,7.603,57.839,21.054,58.013,21.239
							c0.007,0.007,0.015,0.012,0.022,0.019c0.231,3.315,0.317,6.522,0.262,9.624c-6.735-2.93-23.176-8.49-56.657-12.134
							C814.658,332.697,814.557,330.418,814.41,328.075z"/>
						<path fill="#00A793" d="M763.964,497.387l-12.822-0.137l1.707-160.205c22.597,0.307,41.225,1.417,56.479,2.932
							c0.598,43.031-11.561,68.131-23.361,92.452C776.905,451.108,767.566,470.363,763.964,497.387z"/>
						<path fill="#E4FFE1" d="M807.568,294.679c16.883,3.19,29.17,7.38,37.725,11.158c15.262,6.739,21.811,13.447,23.259,15.082
							c0.774,2.76,1.357,5.548,1.739,8.357c0.023,0.167,0.041,0.331,0.063,0.498c-7.43-5.094-24.478-13.946-58.336-19.418
							C810.862,304.846,809.358,299.615,807.568,294.679z"/>
						<path fill="#E4FFE1" d="M693.496,293.509c-1.891,4.896-3.504,10.093-4.775,15.576c-33.927,4.766-51.188,13.246-58.731,18.157
							c0.027-0.176,0.05-0.349,0.078-0.526h0c0.441-2.797,1.082-5.57,1.914-8.31c1.505-1.611,8.259-8.174,23.711-14.584
							C664.317,300.245,676.653,296.337,693.496,293.509z"/>
						<path fill="#E4FFE1" d="M747.823,289.519l-0.171,16.064c-20.849-0.112-38.368,0.964-53.028,2.733
							c1.374-5.462,3.13-10.745,5.247-15.792C713.2,290.636,729.079,289.444,747.823,289.519z"/>
						<path fill="#00CDC8" d="M747.318,336.987l-1.707,160.204l-12.822-0.137c-3.025-27.094-11.952-46.545-20.614-65.411
							c-11.278-24.564-22.898-49.914-21.386-92.912C706.078,337.536,724.728,336.817,747.318,336.987z"/>
						<path fill="#E4FFE1" d="M711.679,505.919c0.021-1.948,1.612-3.518,3.556-3.518c0.013,0,0.025,0,0.038,0l66.376,0.708
							c0.95,0.01,1.839,0.389,2.503,1.068s1.025,1.576,1.015,2.526c-0.021,1.96-1.598,3.549-3.594,3.517l-66.376-0.708
							C713.236,509.491,711.658,507.879,711.679,505.919z"/>
						<path fill="#001600" d="M624.604,325.853c-8.233,52.191,18.159,80.767,43.681,108.401
							c18.13,19.631,35.322,38.263,41.04,64.812c-1.917,1.646-3.15,4.072-3.179,6.792c-0.053,5.011,3.98,9.131,8.991,9.184
							l0.799,0.009l2.464,18.346c-0.025,0.21-0.044,0.422-0.046,0.639c-0.008,0.788,0.146,1.532,0.433,2.237l3.173,23.622
							c-0.023,0.17-0.046,0.339-0.048,0.519c-0.002,0.153,0.018,0.297,0.032,0.443c-0.015,0.142-0.039,0.28-0.041,0.426
							c-0.1,9.354,0.075,19.106,3.32,26.514c3.762,8.588,10.954,12.82,21.985,12.938c0.191,0.002,0.382,0.003,0.571,0.003
							c25.154,0,25.345-18.04,25.568-38.906c0.002-0.145-0.02-0.281-0.031-0.422c0.011-0.088,0.019-0.176,0.024-0.266l3.884-24.884
							c0.154-0.511,0.245-1.041,0.251-1.596c0-0.003,0-0.006,0-0.01l2.953-18.916l1.086,0.012c0.032,0,0.066,0,0.098,0
							c4.967,0,9.033-4.012,9.087-8.99c0.025-2.427-0.895-4.719-2.593-6.454c-0.216-0.22-0.441-0.427-0.674-0.623
							c6.327-26.305,23.867-44.52,42.36-63.707c26.105-27.085,53.1-55.093,45.982-107.447c-0.444-3.267-1.126-6.458-2.018-9.574
							c-0.004-0.017-0.009-0.033-0.014-0.05c-13.78-47.976-78.377-77.63-122.632-78.101c-0.094-0.001-0.191-0.001-0.285-0.001
							c-0.017,0-0.033,0.001-0.05,0.001c-44.26-0.349-109.161,27.91-123.928,75.456c-0.006,0.02-0.012,0.039-0.017,0.059
							C625.868,319.417,625.118,322.595,624.604,325.853z M690.789,338.732c15.288-1.195,33.939-1.915,56.529-1.745l-1.707,160.204
							l-12.822-0.137c-3.025-27.094-11.952-46.545-20.614-65.411C700.897,407.08,689.278,381.73,690.789,338.732z M711.679,505.919
							c0.021-1.948,1.612-3.518,3.556-3.518c0.013,0,0.025,0,0.038,0l66.376,0.708c0.95,0.01,1.839,0.389,2.503,1.068
							s1.025,1.576,1.015,2.526c-0.021,1.96-1.598,3.549-3.594,3.517l-66.376-0.708
							C713.236,509.491,711.658,507.879,711.679,505.919z M761.92,538.996l0.836-8.826c5.727,1.384,8.824,3.274,9.156,4.263
							l-0.078,0.501C771.203,535.989,767.841,537.794,761.92,538.996z M770.707,542.153l-2.128,13.634
							c-2.28-0.952-5.14-1.606-8.055-2.054l0.852-8.988C764.88,544.154,768.088,543.295,770.707,542.153z M740.518,552.946
							l-0.558-7.656c2.579,0.271,5.224,0.421,7.834,0.449c0.302,0.003,0.607,0.005,0.91,0.005c2.353,0,4.727-0.099,7.049-0.297
							l-0.725,7.656c-2.998-0.243-5.662-0.315-7.308-0.332c-0.253-0.003-0.7-0.005-1.294,0
							C744.401,552.772,742.419,552.829,740.518,552.946z M726.92,555.262l-1.818-13.532c2.597,1.18,5.778,2.093,9.252,2.748
							l0.656,8.993c-1.476,0.195-2.873,0.426-4.146,0.697C729.611,554.434,728.223,554.781,726.92,555.262z M724.027,533.725
							c0.666-1.022,3.797-2.712,9.26-3.896l0.649,8.901c-5.578-1.241-8.876-2.98-9.785-4.081L724.027,533.725z M738.768,528.941
							c2.474-0.281,5.242-0.452,8.309-0.452c0.299,0,0.597,0.002,0.901,0.005c3.476,0.037,6.583,0.282,9.318,0.657l-1.012,10.687
							c-2.519,0.256-5.328,0.399-8.431,0.368c-3.053-0.033-5.82-0.227-8.302-0.527L738.768,528.941z M738.366,523.424l-0.593-8.139
							l20.816,0.222l-0.771,8.136c-3.183-0.419-6.509-0.645-9.781-0.68C744.807,522.93,741.52,523.082,738.366,523.424z
							 M785.967,432.431c-9.061,18.677-18.4,37.933-22.002,64.957l-12.822-0.137l1.707-160.205
							c22.597,0.307,41.225,1.417,56.479,2.932C809.926,383.009,797.767,408.109,785.967,432.431z M870.354,329.773
							c-7.43-5.094-24.478-13.946-58.336-19.418c-1.157-5.51-2.66-10.741-4.45-15.676c16.883,3.19,29.17,7.38,37.725,11.158
							c15.262,6.739,21.811,13.447,23.259,15.082c0.774,2.76,1.357,5.548,1.739,8.357
							C870.313,329.442,870.332,329.607,870.354,329.773z M655.694,303.821c8.624-3.576,20.959-7.485,37.802-10.313
							c-1.891,4.896-3.504,10.093-4.775,15.576c-33.927,4.766-51.188,13.246-58.731,18.157c0.027-0.176,0.05-0.349,0.078-0.526h0
							c0.441-2.797,1.082-5.57,1.914-8.31C633.488,316.794,640.241,310.23,655.694,303.821z M699.871,292.523
							c13.329-1.887,29.207-3.079,47.952-3.004l-0.171,16.064c-20.849-0.112-38.368,0.964-53.028,2.733
							C695.998,302.853,697.755,297.57,699.871,292.523z M702.596,286.536c3.48-7.017,7.683-13.487,12.552-19.204
							c10.214-11.995,22.642-19.753,33.134-20.856l-0.4,37.511C730.548,283.919,715.544,284.892,702.596,286.536z M753.814,246.535
							c10.466,1.326,22.726,9.347,32.682,21.557c4.737,5.809,8.794,12.352,12.119,19.426c-12.902-1.908-27.876-3.186-45.202-3.474
							L753.814,246.535z M801.217,293.564c2.011,5.091,3.657,10.411,4.916,15.902c-14.612-2.07-32.102-3.506-52.949-3.825
							l0.171-16.063C772.094,289.892,787.94,291.407,801.217,293.564z M871.394,347.078c-6.735-2.93-23.176-8.49-56.657-12.134
							c-0.08-2.248-0.18-4.526-0.328-6.869c-0.256-4.079-0.702-8.04-1.313-11.878c44.598,7.603,57.839,21.054,58.013,21.239
							c0.007,0.007,0.015,0.012,0.022,0.019C871.363,340.77,871.449,343.976,871.394,347.078z M809.182,334.374
							c-15.293-1.482-33.855-2.557-56.274-2.86l0.217-20.342c21.564,0.333,39.447,1.892,54.196,4.102
							c0.758,4.307,1.289,8.697,1.568,13.148C809.016,330.447,809.107,332.422,809.182,334.374z M691.054,333.136
							c0.117-1.957,0.25-3.937,0.421-5.966c0.373-4.431,0.994-8.797,1.84-13.075c14.145-1.822,31.122-2.994,51.422-2.994
							c0.948,0,1.899,0.003,2.857,0.008l-0.217,20.346C724.961,331.288,706.38,331.975,691.054,333.136z M685.487,333.59
							c-33.514,2.938-50.101,8.14-56.901,10.913c0.011-3.105,0.165-6.313,0.467-9.626c0.004-0.004,0.009-0.007,0.013-0.011
							c0.244-0.243,13.922-13.317,58.454-19.966c-0.689,3.812-1.216,7.748-1.558,11.806
							C685.765,329.054,685.615,331.337,685.487,333.59z M728.282,248.435c-12.058,7.707-24.035,21.04-32.237,39.015
							c-31.925,4.865-50.213,13.837-59.777,20.299c7.679-15.269,21.52-29.147,40.426-40.226
							C692.361,258.342,710.772,251.636,728.282,248.435z M864.466,310.115c-9.426-6.681-27.5-16.031-59.32-21.549
							c-7.819-18.128-19.504-31.698-31.389-39.652c17.441,3.572,35.709,10.673,51.181,20.189
							C843.577,280.565,857.107,294.712,864.466,310.115z M782.245,497.608c-0.179-0.012-0.357-0.03-0.538-0.032l-12.174-0.13
							c3.5-25.675,12.225-43.668,21.41-62.601c12.033-24.802,24.431-50.392,23.928-94.283c36.805,4.106,52.181,10.503,56.24,12.498
							c-2.721,34.895-23.512,56.468-45.303,79.078C807.756,450.867,789.147,470.177,782.245,497.608z M774.839,515.68l-1.939,12.424
							c-2.493-1.507-5.838-2.671-9.616-3.509l0.855-9.029L774.839,515.68z M721.526,515.111l10.696,0.114l0.658,9.024
							c-3.782,0.745-7.152,1.82-9.689,3.253L721.526,515.111z M628.742,350.484c4.129-1.906,19.697-7.959,56.492-11.284
							c-1.435,43.859,10.414,69.703,21.914,94.752c8.78,19.125,17.119,37.299,20.071,63.043l-11.889-0.127c-0.032,0-0.066,0-0.098,0
							c-0.243,0-0.482,0.017-0.721,0.036c-6.313-27.582-24.51-47.288-42.163-66.403
							C651.046,407.435,630.721,385.425,628.742,350.484z"/>
					</g>
					<path opacity="0.35" fill="#3D3356" d="M624.604,325.853c0.514-3.259,1.264-6.436,2.223-9.534
						c0.005-0.02,0.011-0.039,0.017-0.059c13.614-43.83,69.83-71.27,113.206-75.018c-34.662,9.493-70.577,32.427-80.775,65.26
						c-0.005,0.018-0.011,0.036-0.016,0.055c-0.892,2.879-1.589,5.833-2.067,8.862c-7.653,48.515,16.88,75.078,40.605,100.766
						c3,3.248,5.973,6.468,8.862,9.704c23.951,26.826,57.372,43.069,92.981,45.708c-5.41,8.465-9.697,17.636-12.211,28.086
						c0.233,0.195,0.458,0.402,0.674,0.623c0.04,0.041,0.074,0.086,0.114,0.128h-80.189c0.384-0.499,0.819-0.958,1.297-1.368
						c-5.718-26.549-22.91-45.182-41.04-64.812C642.763,406.62,616.372,378.044,624.604,325.853z"/>
					
						<ellipse transform="matrix(-0.8587 -0.5125 0.5125 -0.8587 1333.3459 957.0128)" opacity="0.57" fill="#FFFFFF" cx="798.616" cy="294.679" rx="48.472" ry="30.588"/>
					
						<ellipse transform="matrix(-0.9307 -0.3657 0.3657 -0.9307 1482.3696 1012.1492)" opacity="0.46" fill="#FFFFFF" cx="837.031" cy="365.701" rx="14.562" ry="14.143"/>
				</g>
			</g>
			<g>
				
					<linearGradient id="SVGID_3_" gradientUnits="userSpaceOnUse" x1="-2054.8606" y1="926.3619" x2="-2054.8606" y2="73.6381" gradientTransform="matrix(-1 0 0 1 -1772.3378 0)">
					<stop  offset="0" style="stop-color:#E9FBFF"/>
					<stop  offset="1" style="stop-color:#43C0F8"/>
				</linearGradient>
				<path fill="url(#SVGID_3_)" d="M282.523,926.362L282.523,926.362c108.933,0,197.24-88.307,197.24-197.24V270.878
					c0-108.933-88.307-197.24-197.24-197.24h0c-108.933,0-197.24,88.307-197.24,197.24v458.244
					C85.283,838.055,173.59,926.362,282.523,926.362z"/>
				<g>
					<circle opacity="0.2" fill="#FFFFE7" cx="282.523" cy="500" r="168.853"/>
					<circle opacity="0.2" fill="#FFFFE7" cx="282.523" cy="500" r="143.977"/>
					<circle opacity="0.2" fill="#FFFFE7" cx="282.523" cy="500" r="113.362"/>
					<circle fill="#FFFFE7" cx="282.523" cy="500" r="85.188"/>
				</g>
				<path fill="#211B44" d="M416.181,874.156c-35.145,32.404-82.086,52.206-133.658,52.206h0
					c-50.164,0-95.945-18.737-130.751-49.582c4.734-0.652,9.477-1.309,14.229-1.987C250.391,864.123,331.96,857.219,416.181,874.156
					z"/>
				<path fill="#79D2FA" d="M296.195,692.909c30.502,29.382,65.333,51.403,98.044,78.425c-25.23,24.082-52.385,45.186-84.239,58.459
					c-45.588-14.328-81.844-43.503-116.781-75.643c14.843-11.276,30.053-22.561,45.781-34.357
					c15.036-10.613,27.724-26.702,45.677-30.279C288.834,688.686,293.143,689.969,296.195,692.909z"/>
				<path fill="#91DAFB" d="M248.34,712.457c11.326-9.551,22.199-20.127,36.337-22.943c4.157-0.828,8.466,0.455,11.518,3.396
					c30.502,29.382,65.333,51.403,98.044,78.425c-4.359,4.16-8.779,8.224-13.267,12.181c-26.046-23.803-55.953-43.424-86.972-59.722
					C279.666,716.409,264.2,713.179,248.34,712.457z"/>
				<path fill="#5294F5" d="M106,688.793c11-10,22,5,31,13c55,49,103,106,173,128c36-15,66-40,94-68c3-3,11-3,15,0
					c16.422,10.815,33.804,20.669,50.095,31.422c-10.745,31.273-29.117,59-52.914,80.941
					c-84.222-16.937-165.79-10.033-250.181,0.637c-4.751,0.679-9.495,1.335-14.229,1.987
					c-40.777-36.135-66.489-88.89-66.489-147.658v-24.197C92.325,699.856,99.25,694.52,106,688.793z"/>
				<path fill="#629EF6" d="M106,688.793c11-10,22,5,31,13c40.706,36.266,77.587,76.898,122.382,104.496
					c-15.544-1.678-30.843-5.936-45.382-13.496c-39-20-68-55-110-70c-5.183-1.909-11.782-2.769-18.717-2.513v-15.355
					C92.325,699.856,99.25,694.52,106,688.793z"/>
				<g>
					<path fill="#211B44" d="M178.93,873.438l14.307-66.969c0.616-2.883,5.3-2.835,5.841,0.059l12.518,66.969
						c0.299,1.599-1.095,3.053-2.926,3.053h-26.825C179.985,876.55,178.585,875.054,178.93,873.438z"/>
					<path fill="#211B44" d="M219.913,874.994l7.153-33.484c0.308-1.441,2.65-1.418,2.92,0.03l6.259,33.484
						c0.149,0.799-0.548,1.526-1.463,1.526h-13.412C220.441,876.55,219.741,875.802,219.913,874.994z"/>
					<path fill="#211B44" d="M165.58,882.277l7.153-33.484c0.308-1.441,2.65-1.418,2.92,0.03l6.259,33.484
						c0.149,0.799-0.548,1.526-1.463,1.526h-13.412C166.108,883.833,165.407,883.085,165.58,882.277z"/>
				</g>
				<g>
					<g>
						<path fill="#FFFFFF" d="M214.302,355.043c10.442,17.88,21.366,32.158,30.159,40.673c-9.445-5.825-23.658-20.469-36.45-38.792
							C210.115,356.261,212.212,355.639,214.302,355.043z"/>
						<path fill="#5193F4" d="M158.306,221.874c0.941-5.394,2.855-11.777,6.663-17.471c-1.697,11.306-1.224,23.148,1.528,34.342
							c3.078,11.722,6.969,23.965,11.907,37.48c4.091,11.217,12.651,33.447,24.002,56.272c2.76,5.819,5.643,11.414,8.589,16.735
							c-2.249,0.657-4.509,1.356-6.776,2.09c-2.813-4.296-5.522-8.753-8.055-13.312c-19.915-34.249-30.589-65.094-34.097-75.23
							l-0.177-0.51C157.536,248.592,156.219,233.84,158.306,221.874z"/>
						<path fill="#46F4F5" d="M186.307,202.156c1.344,8.914,4.17,24.064,10.062,46.118c6.113,23.009,14.281,48.708,22.407,70.502
							c3.386,9.129,6.855,17.835,10.305,25.908c-3.829,0.814-7.701,1.728-11.611,2.755c-3.196-5.672-6.304-11.63-9.221-17.78
							c-11.237-22.596-19.697-44.569-23.743-55.661c-4.868-13.325-8.7-25.379-11.714-36.853
							c-5.978-24.319-0.582-53.104,16.697-69.666C185.902,177.877,184.77,189.658,186.307,202.156z"/>
						<path fill="#FFFFFF" d="M231.727,350.761c4.4,9.902,8.726,18.652,12.76,25.756c4.493,8.044,9.095,14.864,13.326,19.84
							l-2.556-0.025c-8.303-5.462-21.76-21.79-34.409-43.058C224.505,352.342,228.133,351.504,231.727,350.761z"/>
						<path fill="#5193F4" d="M245.983,134.972c-0.19,0.179-0.387,0.347-0.575,0.529c-8.754,8.475-19.119,24.676-18.784,53.728
							c0.001,0.033,0.002,0.065,0.003,0.098c0.286,6.877,1.393,22.474,5.589,49.666c3.599,23.575,9.004,52.058,14.46,76.188
							c2.023,8.996,4.092,17.597,6.152,25.609c-5.608,0.654-11.361,1.505-17.234,2.594c-3.584-8.319-7.199-17.358-10.728-26.874
							c-8.058-21.611-16.155-47.091-22.218-69.91c-5.816-21.77-8.596-36.665-9.904-45.327c-2.438-19.848,2.408-37.688,13.66-50.145
							c9.671-10.708,23.287-16.437,38.214-16.125c0.072,0.002,0.14,0.001,0.21-0.002
							C245.21,134.985,245.598,134.983,245.983,134.972z"/>
						<path fill="#FFFFFF" d="M263.007,375.585c2.961,8.694,5.949,15.833,8.717,20.908l-4.832-0.047
							c-3.963-3.545-10.007-11.057-16.744-23.118c-3.754-6.611-7.771-14.699-11.869-23.833c5.503-0.984,10.913-1.756,16.215-2.35
							C257.433,358.143,260.324,367.828,263.007,375.585z"/>
						<path fill="#5193F4" d="M362.286,350.787c-1.547-0.523-3.789-1.245-6.676-2.079c2.995-5.592,5.921-11.481,8.708-17.619
							c10.943-22.955,19.13-45.325,23.033-56.612c4.708-13.587,8.394-25.894,11.267-37.622c2.572-11.271,2.849-23.133,0.964-34.416
							c3.904,5.63,5.925,11.982,6.955,17.361c2.287,11.93,1.218,26.701-2.932,40.527l-0.144,0.436
							c-3.338,10.193-13.495,41.213-32.804,75.733C368.039,341.399,365.219,346.184,362.286,350.787z"/>
						<path fill="#FFFFFF" d="M323.298,395.058c8.533-8.545,19.049-22.736,29.076-40.467c2.52,0.698,4.597,1.326,6.2,1.836
							C346.214,374.616,332.511,389.162,323.298,395.058z"/>
						<path fill="#FFFFFF" d="M311.087,396.756c-0.615,0.007-1.23,0.013-1.845,0.02c4.346-5.111,9.103-12.332,13.721-20.935
							c3.827-7.01,7.91-15.607,12.051-25.32c3.987,0.782,7.606,1.588,10.803,2.366C332.89,375.335,319.054,392.281,311.087,396.756z
							"/>
						<path fill="#46F4F5" d="M392.295,235.36c-2.812,11.48-6.442,23.597-11.084,36.992c-3.86,11.16-11.952,33.272-22.784,55.997
							c-2.925,6.443-6.057,12.682-9.286,18.608c-3.366-0.856-7.229-1.753-11.544-2.627c3.391-8.285,6.793-17.239,10.1-26.636
							c7.759-21.921,15.496-47.752,21.224-70.866c5.523-22.151,8.095-37.343,9.28-46.186c1.333-12.565,0.009-24.341-3.747-34.684
							C392.007,182.242,397.871,210.921,392.295,235.36z"/>
						<path fill="#FFFFFF" d="M317.249,372.748c-6.94,12.928-13.176,20.707-17.052,24.024l-4.081-0.04
							c2.743-5.148,5.699-12.511,8.609-21.511c2.486-7.564,5.204-17.203,7.949-28.089c5.659,0.617,10.937,1.371,15.781,2.193
							C324.601,358.281,320.81,366.226,317.249,372.748z"/>
						<path fill="#5193F4" d="M371.75,199.867c-1.152,8.591-3.683,23.528-9.134,45.393c-5.681,22.923-13.352,48.534-21.046,70.27
							c-3.439,9.77-6.975,19.048-10.488,27.565c-4.638-0.817-9.685-1.58-15.104-2.224c-0.559-0.066-1.134-0.13-1.706-0.194
							c1.992-8.222,3.977-17.022,5.877-26.096c5.102-24.221,10.088-52.781,13.338-76.395c3.801-27.3,4.661-42.869,4.836-49.719
							c0-0.033,0.001-0.065,0.001-0.098c-0.133-29.091-10.783-45.143-19.693-53.486c-0.185-0.173-0.378-0.333-0.565-0.503
							c0.169,0.003,0.34,0,0.509,0.004c0.07,0.003,0.14,0.002,0.21-0.001c14.956-0.556,28.63,4.939,38.478,15.484
							C368.723,162.136,373.868,179.893,371.75,199.867z"/>
						<path fill="#46F4F5" d="M314.19,139.626c11.432,10.705,17.53,27.553,17.637,48.725c-0.174,6.739-1.027,22.023-4.776,48.946
							c-3.231,23.476-8.187,51.867-13.261,75.95c-1.957,9.342-4.001,18.375-6.047,26.779c-13.647-1.193-30.134-1.582-48.37,0.084
							c-2.142-8.277-4.29-17.165-6.358-26.357c-5.425-23.993-10.799-52.307-14.377-75.745c-4.29-27.804-5.288-43.428-5.518-48.901
							c-0.235-21.144,5.577-38.064,16.807-48.937c8.496-8.225,19.81-12.458,31.878-11.936c0.113,0.005,0.228,0.005,0.341-0.003
							C294.175,127.495,305.555,131.542,314.19,139.626z"/>
						<path fill="#FFFFFF" d="M306.136,346.496c-2.624,10.344-5.215,19.49-7.588,26.711c-4.544,14.055-8.086,20.639-9.924,23.451
							l-9.279-0.091c-1.92-2.863-5.529-9.395-10.193-23.092c-2.515-7.269-5.281-16.516-8.096-26.982
							C277.485,345.082,292.726,345.362,306.136,346.496z"/>
						<path fill="#5193F4" d="M246.776,402.748l74.471,0.727c0.779,0.007,1.507,0.318,2.053,0.873
							c0.545,0.556,0.841,1.29,0.833,2.069l-0.015,1.562c-0.008,0.778-0.318,1.507-0.874,2.052
							c-0.549,0.538-1.272,0.834-2.039,0.834c-0.01,0-0.02,0-0.029,0l-74.471-0.727c-0.779-0.008-1.507-0.318-2.053-0.874
							c-0.545-0.556-0.841-1.29-0.833-2.069l0.015-1.561c0.007-0.779,0.317-1.508,0.873-2.053c0.549-0.538,1.273-0.834,2.04-0.834
							C246.757,402.747,246.766,402.747,246.776,402.748z"/>
						<path fill="#211B44" d="M155.724,264.318l0.202,0.586c3.558,10.283,14.387,41.577,34.589,76.316
							c14.99,26.992,35.227,49.511,48.715,58.794c-1.204,1.596-1.874,3.52-1.894,5.556l-0.015,1.561
							c-0.051,5.19,4.13,9.453,9.32,9.505l1.346,0.013l2.709,20.029c-0.024,0.203-0.057,0.403-0.059,0.615c0,0,0,0,0,0.001
							c-0.007,0.781,0.156,1.503,0.437,2.181l3.548,26.235c-0.025,0.182-0.05,0.364-0.052,0.555v0.001
							c-0.002,0.169,0.02,0.33,0.036,0.493c-0.015,0.154-0.044,0.302-0.045,0.462v0c-0.101,10.298,0.102,21.036,3.69,29.207
							c4.178,9.514,12.143,14.197,24.352,14.316c0.194,0.002,0.39,0.003,0.582,0.003c27.888,0.001,28.081-19.924,28.306-42.97
							c0.002-0.165-0.021-0.322-0.034-0.482c0.008-0.078,0.017-0.155,0.021-0.234l4.282-27.593c0.148-0.494,0.233-1.005,0.238-1.535
							l0,0l3.195-20.587l1.918,0.019c0.032,0,0.063,0,0.095,0c2.478,0,4.814-0.954,6.587-2.692c1.795-1.76,2.797-4.114,2.822-6.628
							l0.015-1.562c0.024-2.513-0.931-4.886-2.692-6.681c-0.012-0.012-0.025-0.022-0.037-0.034
							c13.328-9.195,33.637-32.389,48.456-60.154c19.586-35.014,29.891-66.485,33.277-76.827l0.168-0.513
							c7.957-26.504,6.335-57.538-13.339-72.454c-0.86-2.6-1.832-5.146-2.943-7.606c-5.756-12.738-14.453-22.527-25.153-28.608
							c-1.875-2.911-3.993-5.644-6.355-8.172c-11.132-11.919-26.523-18.158-43.365-17.545c-3.017-0.079-6.047,0.021-9.066,0.298
							c-8.251-4.759-17.762-7.022-27.662-6.451c-9.953-0.404-19.46,2.038-27.65,6.964c-3.207-0.264-6.425-0.331-9.624-0.193
							c-16.845-0.312-32.134,6.165-43.065,18.268c-2.317,2.565-4.387,5.33-6.211,8.268c-10.588,6.252-19.13,16.19-24.677,29.033
							c-1.071,2.479-1.999,5.042-2.817,7.657C148.455,206.977,147.35,238.023,155.724,264.318z M161.89,262.27
							c-4.355-13.678-5.671-28.429-3.584-40.395c0.941-5.394,2.855-11.777,6.663-17.471c-1.697,11.306-1.224,23.148,1.528,34.342
							c3.078,11.722,6.969,23.965,11.907,37.48c4.091,11.217,12.651,33.447,24.002,56.272c2.76,5.819,5.643,11.414,8.589,16.735
							c-2.249,0.657-4.509,1.356-6.776,2.09c-2.813-4.296-5.522-8.753-8.055-13.312c-19.915-34.249-30.589-65.094-34.097-75.23
							L161.89,262.27z M246.747,402.747c0.01,0,0.019,0,0.029,0l74.471,0.727c0.779,0.007,1.507,0.318,2.053,0.873
							c0.545,0.556,0.841,1.29,0.833,2.069l-0.015,1.562c-0.008,0.778-0.318,1.507-0.874,2.052
							c-0.549,0.538-1.272,0.834-2.039,0.834c-0.01,0-0.02,0-0.029,0l-74.471-0.727c-0.779-0.008-1.507-0.318-2.053-0.874
							c-0.545-0.556-0.841-1.29-0.833-2.069l0.015-1.561c0.007-0.779,0.317-1.508,0.873-2.053
							C245.256,403.043,245.98,402.747,246.747,402.747z M308.254,445.471l-2.389,15.394c-2.433-0.98-5.41-1.668-8.451-2.146
							l1.03-10.972c2.315-0.334,4.484-0.748,6.437-1.247C306.109,446.186,307.227,445.841,308.254,445.471z M299.07,441.068
							l0.609-6.494c5.027,0.996,8.331,2.286,9.519,3.29C307.947,438.882,304.433,440.163,299.07,441.068z M275.405,457.818
							l-0.706-9.568c4.172,0.369,7.509,0.432,8.511,0.441c0.378,0.004,0.756,0.005,1.131,0.005c2.573,0,5.086-0.094,7.511-0.261
							l-0.896,9.543c-3.214-0.253-6.06-0.328-7.834-0.346C281.37,457.616,278.573,457.635,275.405,457.818z M260.458,460.369
							l-2.071-15.313c2.925,1.096,6.358,1.862,9.739,2.397l0.81,10.971C265.899,458.835,262.917,459.453,260.458,460.369z
							 M257.438,437.359c1.218-0.99,4.592-2.23,9.712-3.132l0.484,6.557C262.217,439.772,258.679,438.409,257.438,437.359z
							 M273.603,433.388c2.926-0.257,6.191-0.396,9.76-0.359c3.624,0.035,6.927,0.246,9.882,0.569l-0.777,8.274
							c-2.782,0.228-5.849,0.353-9.195,0.321c-3.294-0.032-6.313-0.213-9.057-0.487L273.603,433.388z M273.127,426.946
							l-0.742-10.059l22.408,0.219l-0.943,10.052c-5.046-0.536-9.272-0.614-10.423-0.625
							C282.284,426.523,278.121,426.52,273.127,426.946z M403.46,260.763c-3.338,10.193-13.495,41.213-32.804,75.733
							c-2.617,4.903-5.437,9.688-8.37,14.291c-1.547-0.523-3.789-1.245-6.676-2.079c2.995-5.592,5.921-11.481,8.708-17.619
							c10.943-22.955,19.13-45.325,23.033-56.612c4.708-13.587,8.394-25.894,11.267-37.622c2.572-11.271,2.849-23.133,0.964-34.416
							c3.904,5.63,5.925,11.982,6.955,17.361c2.287,11.93,1.218,26.701-2.932,40.527L403.46,260.763z M392.295,235.36
							c-2.812,11.48-6.442,23.597-11.084,36.992c-3.86,11.16-11.952,33.272-22.784,55.997c-2.925,6.443-6.057,12.682-9.286,18.608
							c-3.366-0.856-7.229-1.753-11.544-2.627c3.391-8.285,6.793-17.239,10.1-26.636c7.759-21.921,15.496-47.752,21.224-70.866
							c5.523-22.151,8.095-37.343,9.28-46.186c1.333-12.565,0.009-24.341-3.747-34.684
							C392.007,182.242,397.871,210.921,392.295,235.36z M357.264,149.868c11.458,12.268,16.603,30.025,14.486,49.999
							c-1.152,8.591-3.683,23.528-9.134,45.393c-5.681,22.923-13.352,48.534-21.046,70.27c-3.439,9.77-6.975,19.048-10.488,27.565
							c-4.638-0.817-9.685-1.58-15.104-2.224c-0.559-0.066-1.134-0.13-1.706-0.194c1.992-8.222,3.977-17.022,5.877-26.096
							c5.102-24.221,10.088-52.781,13.338-76.395c3.801-27.3,4.661-42.869,4.836-49.719c0-0.033,0.001-0.065,0.001-0.098
							c-0.133-29.091-10.783-45.143-19.693-53.486c-0.185-0.173-0.378-0.333-0.565-0.503c0.169,0.003,0.34,0,0.509,0.004
							c0.07,0.003,0.14,0.002,0.21-0.001C333.742,133.829,347.415,139.323,357.264,149.868z M314.19,139.626
							c11.432,10.705,17.53,27.553,17.637,48.725c-0.174,6.739-1.027,22.023-4.776,48.946c-3.231,23.476-8.187,51.867-13.261,75.95
							c-1.957,9.342-4.001,18.375-6.047,26.779c-13.647-1.193-30.134-1.582-48.37,0.084c-2.142-8.277-4.29-17.165-6.358-26.357
							c-5.425-23.993-10.799-52.307-14.377-75.745c-4.29-27.804-5.288-43.428-5.518-48.901
							c-0.235-21.144,5.577-38.064,16.807-48.937c8.496-8.225,19.81-12.458,31.878-11.936c0.113,0.005,0.228,0.005,0.341-0.003
							C294.175,127.495,305.555,131.542,314.19,139.626z M244.617,135.004c0.072,0.002,0.14,0.001,0.21-0.002
							c0.383-0.017,0.771-0.019,1.155-0.03c-0.19,0.179-0.387,0.347-0.575,0.529c-8.754,8.475-19.119,24.676-18.784,53.728
							c0.001,0.033,0.002,0.065,0.003,0.098c0.286,6.877,1.393,22.474,5.589,49.666c3.599,23.575,9.004,52.058,14.46,76.188
							c2.023,8.996,4.092,17.597,6.152,25.609c-5.608,0.654-11.361,1.505-17.234,2.594c-3.584-8.319-7.199-17.358-10.728-26.874
							c-8.058-21.611-16.155-47.091-22.218-69.91c-5.816-21.77-8.596-36.665-9.904-45.327c-2.438-19.848,2.408-37.688,13.66-50.145
							C216.075,140.421,229.69,134.692,244.617,135.004z M189.491,167.479c-3.589,10.398-4.721,22.18-3.184,34.677
							c1.344,8.914,4.17,24.064,10.062,46.118c6.113,23.009,14.281,48.708,22.407,70.502c3.386,9.129,6.855,17.835,10.305,25.908
							c-3.829,0.814-7.701,1.728-11.611,2.755c-3.196-5.672-6.304-11.63-9.221-17.78c-11.237-22.596-19.697-44.569-23.743-55.661
							c-4.868-13.325-8.7-25.379-11.714-36.853C166.816,212.825,172.212,184.041,189.491,167.479z M220.848,353.274
							c3.657-0.933,7.285-1.77,10.879-2.514c4.4,9.902,8.726,18.652,12.76,25.756c4.493,8.044,9.095,14.864,13.326,19.84
							l-2.556-0.025C246.954,390.87,233.497,374.542,220.848,353.274z M238.279,349.496c5.503-0.984,10.913-1.756,16.215-2.35
							c2.938,10.997,5.829,20.682,8.512,28.439c2.961,8.694,5.949,15.833,8.717,20.908l-4.832-0.047
							c-3.963-3.545-10.007-11.057-16.744-23.118C246.395,366.717,242.378,358.63,238.279,349.496z M261.057,346.494
							c16.428-1.412,31.669-1.132,45.08,0.002c-2.624,10.344-5.215,19.49-7.588,26.711c-4.544,14.055-8.086,20.639-9.924,23.451
							l-9.279-0.091c-1.92-2.863-5.529-9.395-10.193-23.092C266.638,366.207,263.872,356.96,261.057,346.494z M312.675,347.131
							c5.659,0.617,10.937,1.371,15.781,2.193c-3.856,8.957-7.647,16.903-11.207,23.424c-6.94,12.928-13.176,20.707-17.052,24.024
							l-4.081-0.04c2.743-5.148,5.699-12.511,8.609-21.511C307.212,367.657,309.93,358.017,312.675,347.131z M335.014,350.521
							c3.987,0.782,7.606,1.588,10.803,2.366c-12.927,22.447-26.764,39.394-34.73,43.868c-0.615,0.007-1.23,0.013-1.845,0.02
							c4.346-5.111,9.103-12.332,13.721-20.935C326.791,368.831,330.873,360.234,335.014,350.521z M358.574,356.427
							c-12.36,18.189-26.064,32.735-35.276,38.631c8.533-8.545,19.049-22.736,29.076-40.467
							C354.894,355.289,356.971,355.918,358.574,356.427z M208.01,356.924c2.105-0.663,4.202-1.285,6.292-1.881
							c10.442,17.88,21.366,32.158,30.159,40.673C235.015,389.891,220.803,375.247,208.01,356.924z M312.628,417.28l-2.148,13.841
							c-2.849-1.399-6.493-2.37-10.191-3.046l1.023-10.905L312.628,417.28z M254.554,416.713l11.312,0.11l0.804,10.902
							c-3.697,0.594-7.359,1.477-10.248,2.8L254.554,416.713z"/>
					</g>
					
						<ellipse transform="matrix(-0.6639 -0.7478 0.7478 -0.6639 432.2388 574.9268)" opacity="0.46" fill="#FFFFFF" cx="345.306" cy="190.339" rx="46.65" ry="29.439"/>
					
						<ellipse transform="matrix(-0.9307 -0.3657 0.3657 -0.9307 648.3096 624.6743)" opacity="0.46" fill="#FFFFFF" cx="383.309" cy="250.945" rx="17.243" ry="16.746"/>
					<path opacity="0.28" fill="#3D3356" d="M167.876,191.731c0.817-2.614,1.746-5.177,2.817-7.657
						c5.547-12.843,14.089-22.781,24.677-29.033c1.047-1.685,2.184-3.306,3.392-4.872c-1.304,3.121-2.459,6.359-3.605,9.822
						c-4.577,13.831-7.928,28.256-6.536,42.912c1.283,13.5,4.647,28.237,12.548,39.523c0.907,1.295,18.405,43.99,35.28,73.007
						c0.141,0.254,0.282,0.507,0.424,0.759c19.508,34.791,56.42,56.201,96.308,56.201h21.806
						c-8.843,11.299-17.707,20.322-24.908,25.787h-93.373c-13.398-10.197-32.108-31.604-46.19-56.961
						c-20.202-34.738-31.031-66.033-34.589-76.316l-0.202-0.586C147.35,238.023,148.455,206.977,167.876,191.731z"/>
				</g>
				<path fill="#211B44" d="M328.926,875.793l4.509-4.369l18.644-82.221c0.321-1.935,3.032-2.082,3.575-0.194l19.406,67.585
					l11.352-22.547c0.689-1.369,2.649-1.334,3.3,0.06l19.478,41.686H328.926z"/>
				<g>
					<path fill="#FFFFFF" d="M152.439,610.454c6.033-0.918,11.666,0.876,15.826,4.975c3.511-4.475,9.094-6.975,14.904-6.371
						c2.936,0.305,2.967,4.942,0,4.633c-5.379-0.56-10.132,1.921-12.631,6.741c-0.864,1.666-3.061,1.325-4.001,0
						c-2.915-4.113-7.865-6.271-12.866-5.51C150.754,615.366,149.496,610.902,152.439,610.454z"/>
					<path fill="#FFFFFF" d="M117.818,633.367c6.033-0.918,11.666,0.876,15.826,4.975c3.511-4.475,9.094-6.975,14.904-6.371
						c2.936,0.305,2.967,4.942,0,4.633c-5.379-0.56-10.132,1.921-12.631,6.741c-0.864,1.666-3.061,1.325-4.001,0
						c-2.915-4.113-7.865-6.271-12.866-5.51C116.133,638.278,114.875,633.814,117.818,633.367z"/>
				</g>
				<g>
					<path fill="#FFFFFF" d="M428.178,323.844c6.033-0.918,11.666,0.876,15.826,4.975c3.511-4.475,9.094-6.975,14.904-6.371
						c2.936,0.305,2.967,4.942,0,4.633c-5.379-0.56-10.132,1.921-12.631,6.741c-0.864,1.666-3.061,1.325-4.001,0
						c-2.915-4.113-7.865-6.271-12.866-5.51C426.493,328.755,425.235,324.292,428.178,323.844z"/>
					<path fill="#FFFFFF" d="M393.557,346.756c6.033-0.918,11.666,0.876,15.826,4.975c3.511-4.475,9.094-6.975,14.904-6.371
						c2.936,0.305,2.967,4.942,0,4.633c-5.379-0.56-10.132,1.921-12.631,6.741c-0.864,1.666-3.061,1.325-4.001,0
						c-2.915-4.113-7.865-6.271-12.866-5.51C391.872,351.667,390.614,347.204,393.557,346.756z"/>
				</g>
			</g>
		</g>
	</g>
</g>
<g id="Vexels">
	<g>
		<g>
			<path fill="#FFFFFF" d="M2427.897,335.484h-644.659c-10.94,0-19.81,8.87-19.81,19.81v268.082l-62.03,19.923l62.03,18.008v186.82
				c0,10.939,8.87,19.81,19.81,19.81h644.659c10.94,0,19.811-8.87,19.811-19.81V355.294
				C2447.708,344.354,2438.838,335.484,2427.897,335.484z"/>
			<rect x="1827.998" y="402.472" fill="none" width="583.032" height="407.034"/>
			<text transform="matrix(1 0 0 1 1827.998 419.5122)"><tspan x="0" y="0" fill="#333333" font-family="'MyriadPro-Regular'" font-size="24px">This design was made by vexels.com. This means that for </tspan><tspan x="0" y="28.8" fill="#333333" font-family="'MyriadPro-Regular'" font-size="24px">free use you must give credit and cant do merchandise </tspan><tspan x="0" y="57.6" fill="#333333" font-family="'MyriadPro-Regular'" font-size="24px">items. You can only do commercial and merchandise </tspan><tspan x="0" y="86.4" fill="#333333" font-family="'MyriadPro-Regular'" font-size="24px">items without credit if you get a license. </tspan><tspan x="0" y="115.2" fill="#333333" font-family="'MyriadPro-Regular'" font-size="24px">Learn more on </tspan><tspan x="150.91" y="115.2" fill="#C64B09" font-family="'MyriadPro-Regular'" font-size="24px">www.vexels.com/plans</tspan><tspan x="0" y="172.8" fill="#333333" font-family="'MyriadPro-Regular'" font-size="24px">You cant sublicense, redistribute or resell an image or </tspan><tspan x="0" y="201.6" fill="#333333" font-family="'MyriadPro-Regular'" font-size="24px">part of it. You can only use our contents for products </tspan><tspan x="0" y="230.4" fill="#333333" font-family="'MyriadPro-Regular'" font-size="24px">where the design is the main reason its being purchased </tspan><tspan x="0" y="259.2" fill="#333333" font-family="'MyriadPro-Regular'" font-size="24px">if you get a license. Learn more on </tspan><tspan x="0" y="288" fill="#C64B09" font-family="'MyriadPro-Regular'" font-size="24px">www.vexels.com/terms-and-conditions</tspan><tspan x="0" y="345.6" fill="#333333" font-family="'MyriadPro-Regular'" font-size="24px">Thanks!</tspan><tspan x="0" y="374.4" fill="#333333" font-family="'MyriadPro-Regular'" font-size="24px">Vexels Team</tspan></text>
		</g>
	</g>
	<g>
		<g>
			<g>
				<path fill="#001600" d="M754.07,955.862l-0.771-1.669c-0.379-0.803-1.388-1.176-2.235-0.831
					c-0.917,0.314-1.327,1.262-0.948,2.036l0.867,1.879l6.854,14.872c0.065,0.059,0.127,0.172,0.156,0.23
					c0,0.028,0.036,0.028,0.036,0.028c0.031,0.057,0.094,0.115,0.158,0.174c0,0.056,0.029,0.056,0.029,0.084
					c0.093,0.059,0.158,0.087,0.22,0.145c0.031,0,0.031,0,0.031,0c0.096,0.057,0.222,0.143,0.286,0.171c0.031,0,0.031,0,0.031,0
					s0.032,0,0.032,0.031c0.062,0,0.188,0.028,0.253,0.054c0.028,0,0.062,0,0.062,0c0.094,0.03,0.221,0.03,0.318,0.03
					c0.093,0,0.189,0,0.314-0.03c0.029,0,0.06,0,0.06,0c0.095-0.026,0.157-0.054,0.254-0.054c0.032-0.031,0.032-0.031,0.062-0.031
					c0.096-0.028,0.191-0.114,0.253-0.145c0.062-0.026,0.062-0.026,0.062-0.026c0.063-0.058,0.125-0.086,0.187-0.145
					c0.034-0.027,0.034-0.027,0.065-0.084c0.032-0.059,0.125-0.117,0.156-0.174c0.031,0,0.031,0,0.031-0.028
					c0.066-0.058,0.099-0.171,0.13-0.23l0.293-0.631l-1.868-4.045L754.07,955.862z M820.923,955.743
					c0.535-0.718,0.411-1.693-0.376-2.182c-0.789-0.545-1.829-0.401-2.426,0.345l-3.593,4.48l2.139,2.617L820.923,955.743z
					 M767.858,953.362c-0.849-0.345-1.889,0.028-2.267,0.831l-4.566,9.863l1.874,4.049l5.906-12.708
					C769.151,954.623,768.743,953.676,767.858,953.362z M727.18,947.298c-0.742-0.742-1.727-1.148-2.774-1.148
					s-2.031,0.407-2.773,1.148l-12.696,12.699c-1.528,1.532-1.528,4.016,0,5.543l12.696,12.701c0.742,0.74,1.726,1.146,2.773,1.146
					s2.033-0.406,2.774-1.144l12.696-12.702c0.742-0.743,1.15-1.723,1.15-2.773c0-1.043-0.408-2.028-1.15-2.77L727.18,947.298z
					 M737.905,963.908l-12.36,12.358c-0.611,0.611-1.669,0.611-2.275,0l-12.362-12.358c-0.628-0.628-0.628-1.65-0.003-2.279
					l12.365-12.36c0.01-0.01,0.02-0.02,0.032-0.027v10.243c-0.503,0.171-0.967,0.44-1.354,0.827
					c-0.657,0.657-1.017,1.527-1.017,2.456c0,0.929,0.359,1.805,1.017,2.456c0.655,0.661,1.529,1.02,2.455,1.02
					c0.93,0,1.803-0.358,2.46-1.02c1.353-1.352,1.353-3.557,0-4.915c-0.386-0.386-0.851-0.653-1.355-0.824v-10.243
					c0.011,0.007,0.024,0.018,0.036,0.027l12.36,12.36c0.305,0.303,0.469,0.709,0.469,1.138
					C738.373,963.198,738.21,963.599,737.905,963.908z M814.939,963.14l-2.115-2.638l-5.322-6.596
					c-0.54-0.746-1.641-0.889-2.399-0.345c-0.787,0.489-0.945,1.463-0.41,2.182l5.989,7.397l-5.989,7.46
					c-0.535,0.687-0.377,1.692,0.41,2.179c0.284,0.2,0.633,0.315,1.008,0.315c0.537,0,1.039-0.26,1.39-0.66l5.322-6.625l5.686,7.114
					c0.329,0.409,0.848,0.62,1.33,0.62c0.361,0,0.781-0.166,1.083-0.407c0.715-0.569,0.769-1.598,0.199-2.31L814.939,963.14z
					 M787.069,953.051c-5.096,0-9.245,4.507-9.245,10.043c0,5.493,4.149,9.967,9.245,9.967c3.13,0,6.015-1.708,7.714-4.571
					c0.41-0.74,0.204-1.66-0.519-2.209c-0.233-0.15-0.507-0.23-0.787-0.23c-0.545,0-1.03,0.292-1.292,0.77
					c-1.068,1.883-3.028,3.049-5.116,3.049c-3.091,0-5.655-2.459-6.115-5.789h13.753c0.861,0,1.532-0.668,1.532-1.521l-0.001-0.202
					C795.846,957.052,791.904,953.051,787.069,953.051z M781.178,960.927c0.836-2.821,3.149-4.685,5.891-4.685
					c2.688,0,5.011,1.905,5.794,4.685H781.178z M865.859,969.82c-0.032,0-2.369,0-2.404,0c-0.89,0-1.926-0.514-1.926-1.953v-15.972
					c0-0.939-0.766-1.701-1.71-1.701c-0.906,0-1.703,0.796-1.703,1.701v15.972c0,3.158,2.097,5.198,5.339,5.198
					c0.042,0,2.384,0,2.425-0.003c0.841-0.06,1.504-0.765,1.504-1.62C867.384,970.582,866.709,969.87,865.859,969.82z
					 M891.937,964.548c-0.725-1.064-1.86-1.809-3.152-2.38c-1.259-0.546-2.741-0.919-4.348-1.205h-0.065
					c-1.699-0.288-3.117-0.749-3.936-1.265c-0.41-0.255-0.697-0.513-0.854-0.744c-0.156-0.227-0.219-0.46-0.219-0.801
					c0-0.604,0.345-1.233,1.2-1.807c0.849-0.574,2.111-0.977,3.526-0.977c1.922,0,3.465,0.86,5.075,1.836
					c0.756,0.457,1.765,0.257,2.237-0.431c0.504-0.66,0.284-1.579-0.439-2.036c-1.608-0.946-3.849-2.297-6.873-2.297
					c-2.05,0-3.968,0.546-5.45,1.52c-1.451,0.98-2.523,2.468-2.523,4.191c0,0.858,0.252,1.662,0.728,2.349
					c0.691,1.005,1.732,1.724,2.926,2.237c1.2,0.517,2.589,0.861,4.066,1.12h0.067c1.857,0.315,3.403,0.801,4.317,1.347
					c0.47,0.289,0.754,0.573,0.945,0.862c0.189,0.288,0.282,0.543,0.282,0.916c0,0.718-0.407,1.435-1.357,2.067
					c-0.943,0.63-2.362,1.062-3.936,1.062c-2.24,0.027-4.634-1.178-6.019-2.209c-0.696-0.519-1.734-0.432-2.302,0.196
					c-0.536,0.632-0.442,1.58,0.252,2.096c1.798,1.293,4.664,2.843,8.069,2.869c2.236,0,4.285-0.602,5.83-1.632
					c1.575-1.036,2.708-2.611,2.708-4.449C892.692,966.093,892.411,965.235,891.937,964.548z M839.694,953.051
					c-5.096,0-9.243,4.507-9.243,10.043c0,5.493,4.147,9.967,9.243,9.967c3.134,0,6.013-1.708,7.717-4.571
					c0.409-0.74,0.203-1.66-0.517-2.209c-0.236-0.15-0.509-0.23-0.79-0.23c-0.544,0-1.027,0.292-1.292,0.77
					c-1.067,1.883-3.028,3.049-5.118,3.049c-3.092,0-5.655-2.459-6.114-5.789h13.755c0.858,0,1.531-0.668,1.531-1.521v-0.202
					C848.474,957.052,844.532,953.051,839.694,953.051z M833.805,960.927c0.834-2.821,3.149-4.685,5.889-4.685
					c2.693,0,5.013,1.905,5.795,4.685H833.805z"/>
			</g>
			<g>
				<path fill="#001600" d="M614.53,964.1c0,0.597,0.006,1.137,0.015,1.623c0.012,0.482,0.065,0.96,0.158,1.428h-0.946l-0.35-1.244
					h-0.071c-0.233,0.408-0.571,0.747-1.017,1.016c-0.444,0.268-0.963,0.403-1.56,0.403c-1.167,0-2.036-0.366-2.603-1.105
					c-0.566-0.735-0.849-1.886-0.849-3.454c0-1.494,0.354-2.63,1.062-3.407c0.706-0.777,1.679-1.165,2.917-1.165
					c0.432,0,0.774,0.022,1.026,0.068c0.25,0.047,0.522,0.123,0.814,0.229v-3.645h1.404V964.1z M610.989,966.101
					c0.595,0,1.069-0.157,1.421-0.466c0.348-0.31,0.588-0.78,0.717-1.411v-4.347c-0.211-0.163-0.448-0.281-0.717-0.351
					c-0.271-0.07-0.626-0.105-1.07-0.105c-0.806,0-1.437,0.267-1.893,0.799c-0.455,0.531-0.684,1.38-0.684,2.547
					c0,0.481,0.039,0.925,0.115,1.333c0.074,0.412,0.2,0.76,0.376,1.052c0.175,0.293,0.405,0.523,0.693,0.693
					C610.233,966.015,610.58,966.101,610.989,966.101z"/>
				<path fill="#001600" d="M623.627,966.415c-0.352,0.281-0.792,0.502-1.323,0.666c-0.532,0.163-1.095,0.245-1.691,0.245
					c-0.666,0-1.245-0.108-1.737-0.324c-0.489-0.215-0.893-0.525-1.209-0.929c-0.315-0.404-0.55-0.887-0.7-1.447
					c-0.153-0.56-0.23-1.189-0.23-1.891c0-1.496,0.335-2.637,1.001-3.42c0.665-0.781,1.617-1.175,2.857-1.175
					c0.397,0,0.793,0.046,1.191,0.134c0.398,0.086,0.754,0.253,1.069,0.5c0.316,0.245,0.573,0.593,0.772,1.041
					c0.198,0.451,0.298,1.043,0.298,1.779c0,0.386-0.035,0.814-0.106,1.28h-5.625c0,0.514,0.051,0.97,0.158,1.369
					c0.105,0.398,0.267,0.733,0.491,1.006c0.222,0.276,0.51,0.487,0.867,0.633c0.357,0.146,0.792,0.22,1.306,0.22
					c0.397,0,0.794-0.072,1.193-0.213c0.397-0.139,0.695-0.304,0.894-0.49L623.627,966.415z M620.612,959.369
					c-0.69,0-1.243,0.179-1.657,0.543c-0.416,0.362-0.663,0.982-0.744,1.859h4.346c0-0.889-0.17-1.511-0.509-1.868
					C621.709,959.546,621.232,959.369,620.612,959.369z"/>
				<path fill="#001600" d="M629.989,964.732c0-0.352-0.105-0.626-0.314-0.824c-0.213-0.199-0.472-0.365-0.782-0.5
					c-0.31-0.134-0.649-0.264-1.015-0.386c-0.369-0.121-0.708-0.28-1.018-0.472c-0.31-0.193-0.569-0.442-0.78-0.744
					c-0.21-0.305-0.316-0.715-0.316-1.229c0-0.841,0.239-1.455,0.719-1.848c0.479-0.392,1.145-0.59,1.999-0.59
					c0.63,0,1.16,0.058,1.586,0.17c0.426,0.11,0.797,0.242,1.113,0.395l-0.333,1.154c-0.27-0.127-0.594-0.241-0.972-0.339
					c-0.381-0.1-0.786-0.15-1.219-0.15c-0.514,0-0.891,0.087-1.129,0.262c-0.24,0.177-0.359,0.479-0.359,0.911
					c0,0.303,0.104,0.541,0.317,0.71c0.21,0.17,0.469,0.322,0.778,0.456c0.31,0.134,0.649,0.265,1.017,0.395
					c0.367,0.129,0.706,0.298,1.016,0.509c0.31,0.21,0.57,0.475,0.78,0.797c0.211,0.322,0.315,0.743,0.315,1.269
					c0,0.376-0.06,0.727-0.182,1.053c-0.124,0.328-0.313,0.609-0.571,0.842c-0.258,0.234-0.575,0.419-0.956,0.552
					c-0.38,0.134-0.825,0.202-1.34,0.202c-0.667,0-1.234-0.066-1.7-0.192c-0.469-0.13-0.86-0.28-1.175-0.455l0.42-1.193
					c0.269,0.152,0.619,0.292,1.053,0.421c0.432,0.128,0.87,0.194,1.314,0.194c0.502,0,0.918-0.101,1.244-0.3
					C629.825,965.602,629.989,965.247,629.989,964.732z"/>
				<path fill="#001600" d="M633.512,955.688c0-0.268,0.089-0.5,0.271-0.694c0.182-0.193,0.413-0.288,0.693-0.288
					c0.28,0,0.519,0.096,0.718,0.288c0.199,0.195,0.298,0.426,0.298,0.694c0,0.267-0.098,0.491-0.298,0.665
					c-0.199,0.177-0.438,0.264-0.718,0.264c-0.28,0-0.511-0.087-0.693-0.264C633.602,956.179,633.512,955.955,633.512,955.688z
					 M633.81,958.352h1.402v8.763h-1.402V958.352z"/>
				<path fill="#001600" d="M644.922,967.519c0,1.134-0.302,1.969-0.903,2.508c-0.602,0.537-1.492,0.805-2.672,0.805
					c-0.701,0-1.265-0.043-1.692-0.131c-0.426-0.087-0.792-0.202-1.097-0.343l0.37-1.192c0.269,0.107,0.566,0.206,0.894,0.299
					c0.327,0.094,0.754,0.14,1.28,0.14c0.49,0,0.89-0.044,1.2-0.131c0.31-0.087,0.559-0.234,0.745-0.439
					c0.187-0.203,0.316-0.467,0.386-0.789c0.07-0.322,0.105-0.704,0.105-1.148v-0.84h-0.07c-0.234,0.339-0.532,0.599-0.893,0.78
					c-0.363,0.181-0.836,0.273-1.421,0.273c-1.179,0-2.047-0.369-2.602-1.106c-0.556-0.735-0.833-1.881-0.833-3.437
					c0-1.494,0.357-2.63,1.069-3.407c0.713-0.777,1.765-1.165,3.155-1.165c0.666,0,1.237,0.051,1.71,0.156
					c0.474,0.105,0.896,0.229,1.271,0.367V967.519z M641.399,966.081c0.595,0,1.063-0.148,1.402-0.447
					c0.339-0.298,0.58-0.762,0.72-1.393v-4.488c-0.469-0.223-1.065-0.334-1.789-0.334c-0.794,0-1.419,0.27-1.875,0.806
					c-0.455,0.537-0.684,1.38-0.684,2.524c0,0.491,0.042,0.941,0.122,1.349c0.082,0.412,0.211,0.76,0.386,1.052
					c0.175,0.293,0.402,0.521,0.684,0.684C640.646,966,640.989,966.081,641.399,966.081z"/>
				<path fill="#001600" d="M653.247,967.115v-4.993c0-0.913-0.131-1.6-0.395-2.06c-0.262-0.463-0.745-0.693-1.445-0.693
					c-0.62,0-1.132,0.167-1.535,0.5c-0.403,0.331-0.687,0.751-0.851,1.253v5.993h-1.402v-8.763h0.982l0.263,1.069h0.071
					c0.281-0.374,0.657-0.682,1.131-0.921c0.473-0.238,1.038-0.36,1.691-0.36c0.481,0,0.901,0.058,1.262,0.17
					c0.363,0.11,0.663,0.305,0.904,0.585c0.238,0.28,0.42,0.658,0.542,1.131c0.124,0.474,0.184,1.073,0.184,1.797v5.293H653.247z"/>
				<path fill="#001600" d="M663.605,966.415c-0.35,0.281-0.79,0.502-1.322,0.666c-0.533,0.163-1.096,0.245-1.691,0.245
					c-0.666,0-1.245-0.108-1.735-0.324c-0.49-0.215-0.894-0.525-1.21-0.929c-0.315-0.404-0.549-0.887-0.7-1.447
					c-0.152-0.56-0.229-1.189-0.229-1.891c0-1.496,0.333-2.637,1-3.42c0.665-0.781,1.618-1.175,2.857-1.175
					c0.398,0,0.795,0.046,1.193,0.134c0.395,0.086,0.752,0.253,1.069,0.5c0.314,0.245,0.571,0.593,0.77,1.041
					c0.199,0.451,0.299,1.043,0.299,1.779c0,0.386-0.035,0.814-0.104,1.28h-5.627c0,0.514,0.053,0.97,0.158,1.369
					c0.105,0.398,0.269,0.733,0.491,1.006c0.222,0.276,0.51,0.487,0.867,0.633c0.357,0.146,0.792,0.22,1.306,0.22
					c0.398,0,0.795-0.072,1.193-0.213c0.396-0.139,0.694-0.304,0.893-0.49L663.605,966.415z M660.592,959.369
					c-0.69,0-1.241,0.179-1.656,0.543c-0.414,0.362-0.664,0.982-0.745,1.859h4.348c0-0.889-0.171-1.511-0.509-1.868
					C661.689,959.546,661.21,959.369,660.592,959.369z"/>
				<path fill="#001600" d="M672.844,964.1c0,0.597,0.004,1.137,0.016,1.623c0.013,0.482,0.065,0.96,0.158,1.428h-0.946l-0.35-1.244
					h-0.07c-0.234,0.408-0.574,0.747-1.016,1.016c-0.445,0.268-0.966,0.403-1.561,0.403c-1.167,0-2.036-0.366-2.603-1.105
					c-0.566-0.735-0.851-1.886-0.851-3.454c0-1.494,0.354-2.63,1.062-3.407c0.706-0.777,1.679-1.165,2.919-1.165
					c0.432,0,0.774,0.022,1.024,0.068c0.253,0.047,0.524,0.123,0.816,0.229v-3.645h1.404V964.1z M669.303,966.101
					c0.596,0,1.069-0.157,1.42-0.466c0.349-0.31,0.589-0.78,0.718-1.411v-4.347c-0.209-0.163-0.45-0.281-0.718-0.351
					c-0.268-0.07-0.626-0.105-1.07-0.105c-0.806,0-1.436,0.267-1.891,0.799c-0.456,0.531-0.685,1.38-0.685,2.547
					c0,0.481,0.037,0.925,0.114,1.333c0.075,0.412,0.202,0.76,0.376,1.052c0.177,0.293,0.407,0.523,0.694,0.693
					C668.547,966.015,668.894,966.101,669.303,966.101z"/>
				<path fill="#001600" d="M680.223,954.846h1.402v4.365h0.071c0.268-0.339,0.61-0.602,1.024-0.789
					c0.414-0.187,0.868-0.283,1.357-0.283c1.136,0,1.983,0.365,2.552,1.088c0.566,0.725,0.849,1.847,0.849,3.365
					c0,1.532-0.374,2.695-1.122,3.488c-0.747,0.795-1.8,1.191-3.154,1.191c-0.655,0-1.247-0.069-1.778-0.209
					c-0.532-0.14-0.933-0.292-1.202-0.456V954.846z M683.834,959.369c-0.585,0-1.059,0.162-1.42,0.489
					c-0.363,0.328-0.625,0.79-0.789,1.385v4.417c0.221,0.129,0.492,0.227,0.806,0.292c0.315,0.063,0.642,0.096,0.982,0.096
					c0.794,0,1.429-0.283,1.902-0.843c0.472-0.561,0.708-1.436,0.708-2.627c0-0.455-0.04-0.883-0.121-1.281
					c-0.082-0.397-0.21-0.735-0.386-1.017c-0.175-0.281-0.4-0.503-0.673-0.664C684.566,959.452,684.23,959.369,683.834,959.369z"/>
				<path fill="#001600" d="M692.062,964.031l0.492,1.682h0.088l0.387-1.698l1.707-5.663h1.402l-2.594,7.869
					c-0.199,0.572-0.394,1.128-0.587,1.666c-0.193,0.537-0.407,1.016-0.64,1.438c-0.235,0.421-0.499,0.756-0.789,1.008
					c-0.293,0.25-0.631,0.376-1.017,0.376c-0.42,0-0.765-0.059-1.034-0.174l0.245-1.21c0.152,0.059,0.298,0.086,0.439,0.086
					c0.328,0,0.642-0.172,0.946-0.516c0.303-0.345,0.555-0.937,0.754-1.781l-3.524-8.763h1.612L692.062,964.031z"/>
			</g>
		</g>
	</g>
</g>
</svg>
